:FULLY-SPECIFIED
:FORCE-ALL-JOINTS-BE-3DOF
:DEGREES
130
root 9.08387 15.9278 -19.0687 6.18408 7.94579 6.18799
lfemur 20.4009 1.21972 -26.6373
ltibia 3.65764e-14 0 0
lfoot -13.6195 -2.08629 -0.0019563
ltoes -7.61097 0 0
rfemur -42.347 8.4111 5.65994
rtibia 27.5573 -0 0
rfoot -21.0244 -11.4317 0.0107706
rtoes -20.9911 0 0
lowerback -8.39066 -4.18305 -7.27666
upperback -1.21036 -4.98117 1.92342
thorax 4.2287 -2.60525 5.47939
lowerneck -19.9128 -5.50118 -13.1826
upperneck 20.8507 -6.3806 11.0907
head 10.8124 -2.69032 5.25085
lclavicle 2.4254e-14 -1.31198e-14 0
lhumerus -31.8375 -24.0204 98.3546
lradius 36.0432 -0 0
lwrist 6.84085 0 0
lhand -12.6021 -24.4827 -0.0212528
lfingers 7.12502 0 0
lthumb 13.4768 5.06209 -0.020049
rclavicle 2.4254e-14 -1.31198e-14 0
rhumerus -47.5446 5.82015 -82.5452
rradius 32.225 -0 0
rwrist -19.1413 0 0
rhand -28.3659 -28.2243 -0.16412
rfingers 7.12502 0 0
rthumb -1.73916 -58.183 -0.158914
131
root 9.05773 15.913 -18.9027 6.26316 8.22075 6.20232
lfemur 20.9202 1.23196 -26.2939
ltibia 2.65046e-14 0 0
lfoot -13.2269 -2.42311 -0.00151576
ltoes -7.42104 0 0
rfemur -42.199 7.80736 6.10012
rtibia 27.9682 -0 0
rfoot -19.7307 -10.9828 0.00575612
rtoes -21.8402 0 0
lowerback -8.3474 -4.20472 -7.26602
upperback -1.20715 -5.01298 1.8962
thorax 4.20939 -2.62002 5.44256
lowerneck -19.9781 -5.55991 -13.2017
upperneck 20.7318 -6.4493 11.1294
head 10.7934 -2.71599 5.2533
lclavicle 3.34181e-14 -1.40475e-14 0
lhumerus -32.2305 -23.6042 98.6041
lradius 34.9677 -0 0
lwrist 5.84539 0 0
lhand -13.2773 -24.4857 -0.0266443
lfingers 7.12502 0 0
lthumb 12.8261 5.10471 -0.0243504
rclavicle 3.34181e-14 -1.40475e-14 0
rhumerus -47.656 5.55511 -82.4473
rradius 31.9433 -0 0
rwrist -18.9927 0 0
rhand -27.3298 -31.2151 -0.135296
rfingers 7.12502 0 0
rthumb -0.738525 -61.1819 -0.131012
132
root 9.0316 15.8981 -18.7366 6.3324 8.46067 6.18195
lfemur 21.4342 1.27959 -25.9126
ltibia 1.64329e-14 0 0
lfoot -12.7362 -2.72471 -0.00076988
ltoes -7.39932 0 0
rfemur -42.0859 7.19819 6.59315
rtibia 28.4702 -0 0
rfoot -18.3432 -10.5417 0.000525615
rtoes -22.5597 0 0
lowerback -8.29769 -4.20918 -7.21071
upperback -1.20141 -5.02655 1.87335
thorax 4.18325 -2.62492 5.38814
lowerneck -20.035 -5.61893 -13.2301
upperneck 20.6018 -6.52146 11.1906
head 10.7705 -2.7416 5.26502
lclavicle 4.25821e-14 -1.49751e-14 0
lhumerus -32.5816 -23.0633 98.7707
lradius 33.8777 -0 0
lwrist 4.90158 0 0
lhand -13.6705 -24.3462 -0.021276
lfingers 7.12502 0 0
lthumb 12.4471 5.26882 -0.0189698
rclavicle 4.25821e-14 -1.49751e-14 0
rhumerus -47.7747 5.32047 -82.3773
rradius 31.6789 -0 0
rwrist -18.8412 0 0
rhand -26.4519 -33.6824 -0.0661542
rfingers 7.12502 0 0
rthumb 0.109342 -63.6564 -0.0640633
133
root 9.00546 15.8832 -18.5706 6.3928 8.64565 6.11952
lfemur 21.9314 1.38423 -25.4912
ltibia 6.36111e-15 0 0
lfoot -12.1168 -2.97048 0
ltoes -7.68344 0 0
rfemur -42.04 6.59503 7.13481
rtibia 29.0787 0 0
rfoot -16.8983 -10.1335 0
rtoes -22.993 0 0
lowerback -8.2432 -4.19217 -7.10169
upperback -1.19302 -5.01692 1.857
thorax 4.15006 -2.61735 5.31392
lowerneck -20.0803 -5.67487 -13.2646
upperneck 20.4623 -6.5946 11.277
head 10.7437 -2.76552 5.28701
lclavicle 5.17461e-14 -1.59028e-14 0
lhumerus -32.8727 -22.3464 98.821
lradius 32.8069 0 0
lwrist 4.07631 0 0
lhand -13.5907 -23.998 0
lfingers 7.12502 0 0
lthumb 12.5237 5.60671 0
rclavicle 5.17461e-14 -1.59028e-14 0
rhumerus -47.8982 5.13757 -82.3518
rradius 31.4444 0 0
rwrist -18.7101 0 0
rhand -25.8973 -35.1427 0
rfingers 7.12502 0 0
rthumb 0.644928 -65.1215 0
134
root 8.97909 15.8804 -18.3978 6.44302 8.77467 6.00074
lfemur 22.4172 1.54671 -25.0106
ltibia 9.54166e-15 0 0
lfoot -11.3922 -3.17858 -0.0029089
ltoes -8.35792 0 0
rfemur -42.0883 5.96105 7.75929
rtibia 29.8428 -0 0
rfoot -15.234 -9.77582 0.00564671
rtoes -23.1661 0 0
lowerback -8.1858 -4.14677 -6.91235
upperback -1.17892 -4.97687 1.84507
thorax 4.11061 -2.59341 5.20373
lowerneck -20.122 -5.73316 -13.3108
upperneck 20.3176 -6.67736 11.4025
head 10.7178 -2.79038 5.32412
lclavicle 5.04809e-14 -1.20596e-14 0
lhumerus -33.1011 -21.4692 98.7719
lradius 31.7456 -0 0
lwrist 3.4601 0 0
lhand -12.7785 -23.267 0.0411863
lfingers 7.12502 0 0
lthumb 13.3058 6.27251 0.0356639
rclavicle 5.04809e-14 -1.20596e-14 0
rhumerus -48.0439 5.01641 -82.3962
rradius 31.2487 -0 0
rwrist -18.6074 0 0
rhand -25.6657 -35.4956 0.0370921
rfingers 7.12502 0 0
rthumb 0.868566 -65.4771 0.0359305
